# xmcd
#
# Track frame offsets:
#	150
#	15343
#	29337
#	44647
#	62586
#	76999
#	97337
#	113924
#	126889
#	144427
#	167318
#
# Disc length: 2477 seconds
#
# Revision: 0
# Processed by: cddbd v1.5.1PL0 Copyright (c) Steve Scherf et al.
# Submitted via: audiograbber 1.83.01
#
DISCID=8b09ab0b
DTITLE=Walker, Clay - Live, Laugh, Love - Walker, Clay - Live, Laugh, Love
DYEAR=1900
DGENRE=Country
TTITLE0=She's Always Right
TTITLE1=Lose Some Sleep Tonight
TTITLE2=Holding Her And Loving You
TTITLE3=Cold Hearted
TTITLE4=If A Man Ain't Thinking ('bout His Woman)
TTITLE5=Once In A Lifetime Love
TTITLE6=It Ain't Called Heartland (For Nothin')
TTITLE7=Woman Thing
TTITLE8=This Time Love
TTITLE9=The Chain Of Love
TTITLE10=Live, Laugh, Love
EXTD=
EXTT0=
EXTT1=
EXTT2=
EXTT3=
EXTT4=
EXTT5=
EXTT6=
EXTT7=
EXTT8=
EXTT9=
EXTT10=
PLAYORDER=
